{"title":"Hawa_Bodol_2013_Non_Retail_1CD_DVDRip_Xvid_MP3_MTR_Dev","uid":8472233,"size":738944447,"categoryP":"video","categoryS":"movies","magnet":"?xt=urn:btih:f5442e8ec26300403c60b189849999300eed147a&amp;dn=Hawa_Bodol_2013_Non_Retail_1CD_DVDRip_Xvid_MP3_MTR_Dev&amp;tr=udp%3A%2F%2Ftracker.openbittorrent.com%3A80&amp;tr=udp%3A%2F%2Fopen.demonii.com%3A1337&amp;tr=udp%3A%2F%2Ftracker.coppersurfer.tk%3A6969&amp;tr=udp%3A%2F%2Fexodus.desync.com%3A6969","seeders":0,"leechers":0,"uploader":"Devdeep","files":13,"time":1368514986,"description":"   Hawa_Bodol_2013_Non_Retail_1CD_DVDRip_Xvid_MP3_MTR_Dev\n\n Format                                   : AVI\n Format/Info                              : Audio Video Interleave\n File size                                : 693 MiB\n Duration                                 : 2h 16mn\n Overall bit rate                         : 708 Kbps\n\n Video\n ID                                       : 0\n Format                                   : MPEG-4 Visual\n Format profile                           : Advanced Simple@L5\n Format settings, BVOP                    : 2\n Format settings, QPel                    : No\n Format settings, GMC                     : No warppoints\n Format settings, Matrix                  : Default (H.263)\n Codec ID                                 : XVID\n Codec ID/Hint                            : XviD\n Duration                                 : 2h 16mn\n Bit rate                                 : 622 Kbps\n Width                                    : 656 pixels\n Height                                   : 272 pixels\n Display aspect ratio                     : 2.40:1\n Frame rate                               : 25.000 fps\n Color space                              : YUV\n Chroma subsampling                       : 4:2:0\n Bit depth                                : 8 bits\n Scan type                                : Progressive\n Compression mode                         : Lossy\n Bits/(Pixel*Frame)                       : 0.139\n Stream size                              : 609 MiB (88%)\n\n Audio\n ID                                       : 1\n Format                                   : MPEG Audio\n Format version                           : Version 1\n Format profile                           : Layer 3\n Mode                                     : Joint stereo\n Mode extension                           : MS Stereo\n Codec ID                                 : 55\n Codec ID/Hint                            : MP3\n Duration                                 : 2h 16mn\n Bit rate mode                            : Constant\n Bit rate                                 : 80.0 Kbps\n Channel(s)                               : 2 channels\n Sampling rate                            : 32.0 KHz\n Compression mode                         : Lossy\n Stream size                              : 78.3 MiB (11%)\nScreens.................. &lt;a href=&quot;\nhttp://imageshack.us/a/img593/8246/ptx7k.png&quot; rel=&quot;nofollow&quot; target=&quot;_NEW&quot;&gt;\nhttp://imageshack.us/a/img593/8246/ptx7k.png&lt;/a&gt; &lt;a href=&quot;\nhttp://imageshack.us/a/img208/5059/87681745.png&quot; rel=&quot;nofollow&quot; target=&quot;_NEW&quot;&gt;\nhttp://imageshack.us/a/img208/5059/87681745.png&lt;/a&gt; &lt;a href=&quot;\nhttp://imageshack.us/a/img266/4725/86928928.png&quot; rel=&quot;nofollow&quot; target=&quot;_NEW&quot;&gt;\nhttp://imageshack.us/a/img266/4725/86928928.png&lt;/a&gt; &lt;a href=&quot;\nhttp://imageshack.us/a/img850/2545/24550627.png&quot; rel=&quot;nofollow&quot; target=&quot;_NEW&quot;&gt;\nhttp://imageshack.us/a/img850/2545/24550627.png&lt;/a&gt; &lt;a href=&quot;\nhttp://imageshack.us/a/img94/6578/83050908.png&quot; rel=&quot;nofollow&quot; target=&quot;_NEW&quot;&gt;\nhttp://imageshack.us/a/img94/6578/83050908.png&lt;/a&gt; &lt;a href=&quot;\nhttp://imageshack.us/a/img850/4676/30291461.png&quot; rel=&quot;nofollow&quot; target=&quot;_NEW&quot;&gt;\nhttp://imageshack.us/a/img850/4676/30291461.png&lt;/a&gt; &lt;a href=&quot;\nhttp://imageshack.us/a/img32/2007/15576511.png&quot; rel=&quot;nofollow&quot; target=&quot;_NEW&quot;&gt;\nhttp://imageshack.us/a/img32/2007/15576511.png&lt;/a&gt;","torrent":{"xt":"urn:btih:f5442e8ec26300403c60b189849999300eed147a","amp;dn":"Hawa_Bodol_2013_Non_Retail_1CD_DVDRip_Xvid_MP3_MTR_Dev","amp;tr":["udp%3A%2F%2Ftracker.openbittorrent.com%3A80","udp%3A%2F%2Fopen.demonii.com%3A1337","udp%3A%2F%2Ftracker.coppersurfer.tk%3A6969","udp%3A%2F%2Fexodus.desync.com%3A6969"],"infoHash":"f5442e8ec26300403c60b189849999300eed147a","infoHashBuffer":{"type":"Buffer","data":[245,68,46,142,194,99,0,64,60,96,177,137,132,153,153,48,14,237,20,122]},"announce":[],"urlList":[]}}